<svg width="25" height="26" viewBox="0 0 25 26" fill="none" xmlns="http://www.w3.org/2000/svg">
<path d="M23.6087 5.52174L23.6087 12.913C23.6087 15.8535 22.4406 18.6735 20.3614 20.7527C18.2822 22.8319 15.4622 24 12.5217 24C9.5813 24 6.76129 22.8319 4.68209 20.7527C2.60288 18.6735 1.43479 15.8535 1.43479 12.913L1.43479 5.52174M1.43479 4.28985C1.43479 3.63642 1.69437 3.00975 2.15641 2.54771C2.61846 2.08566 3.24513 1.82608 3.89856 1.82608L5.13044 1.82608C5.78388 1.82608 6.41055 2.08566 6.87259 2.54771C7.33464 3.00975 7.59421 3.63642 7.59421 4.28985L7.59421 7.98551C7.59421 8.63894 7.33464 9.26561 6.87259 9.72765C6.41054 10.1897 5.78388 10.4493 5.13044 10.4493L1.43479 10.4493L1.43479 4.28985ZM23.6087 4.28985C23.6087 3.63642 23.3491 3.00975 22.8871 2.54771C22.425 2.08566 21.7984 1.82609 21.1449 1.82609L19.9131 1.82609C19.2596 1.82609 18.633 2.08566 18.1709 2.54771C17.7089 3.00975 17.4493 3.63642 17.4493 4.28985L17.4493 7.98551C17.4493 8.63894 17.7089 9.26561 18.1709 9.72765C18.633 10.1897 19.2596 10.4493 19.9131 10.4493L23.6087 10.4493L23.6087 4.28985Z" stroke="black" stroke-width="2.17391" stroke-linecap="round" stroke-linejoin="round"/>
</svg>
